<svg width="100" height="100" viewBox="0 0 100 100" fill="none" xmlns="http://www.w3.org/2000/svg">
<path fill-rule="evenodd" clip-rule="evenodd" d="M50 75.6773C77.6143 75.6773 100 64.3324 100 50.3386C100 36.3449 77.6143 25 50 25C22.3863 25 0 36.3449 0 50.3386C0 64.3324 22.3863 75.6773 50 75.6773Z" fill="#7B4AE2" fill-opacity="0.6"/>
<path fill-rule="evenodd" clip-rule="evenodd" d="M28.197 42.565C30.4667 42.565 31.98 42.984 32.7364 43.822C33.4921 44.66 33.6723 46.099 33.2769 48.1371C32.8633 50.2599 32.0677 51.775 30.8887 52.6832C29.7097 53.5913 27.9152 54.0447 25.5064 54.0447H21.8715L24.1025 42.565H28.197ZM13.6385 65.6659H19.6133L21.0311 58.3737H26.1491C28.4074 58.3737 30.2653 58.1361 31.7236 57.6615C33.182 57.1869 34.5079 56.3918 35.7008 55.2751C36.702 54.3555 37.5122 53.3398 38.1325 52.2297C38.7523 51.1196 39.1924 49.8953 39.453 48.5561C40.0854 45.3045 39.6084 42.7718 38.0231 40.958C36.4384 39.1436 33.9166 38.2366 30.46 38.2366H18.97L13.6385 65.6659V65.6659ZM43.8413 30.9438H49.7695L48.3523 38.2366H53.6342C56.9559 38.2366 59.2492 38.8159 60.5104 39.9749C61.7716 41.1339 62.1495 43.0124 61.6453 45.6092L59.1651 58.3737H53.1426L55.5006 46.2368C55.7684 44.8559 55.6705 43.9145 55.2043 43.4121C54.7382 42.9103 53.746 42.6588 52.2296 42.6588H47.4919L44.438 58.3737H38.5098L43.8413 30.9438ZM74.8354 42.565C77.1052 42.565 78.6179 42.984 79.3749 43.822C80.1306 44.66 80.3102 46.099 79.9148 48.1371C79.5024 50.2599 78.7068 51.775 77.5272 52.6832C76.3488 53.5913 74.5537 54.0447 72.1461 54.0447H68.5112L70.7416 42.565H74.8354V42.565ZM60.2758 65.6659H66.2512L67.6684 58.3737H72.7864C75.0452 58.3737 76.9032 58.1361 78.3615 57.6615C79.8199 57.1869 81.1458 56.3918 82.3387 55.2751C83.3399 54.3555 84.1501 53.3398 84.7698 52.2297C85.3895 51.1196 85.8303 49.8953 86.0915 48.5561C86.7233 45.3045 86.2463 42.7718 84.6616 40.958C83.0757 39.1436 80.5545 38.2366 77.0979 38.2366H65.6079L60.2758 65.6659V65.6659Z" fill="#7B4AE2"/>
</svg>
