<svg width="100" height="100" viewBox="0 0 100 100" fill="none" xmlns="http://www.w3.org/2000/svg">
<g clip-path="url(#clip0_39_4715)">
<path d="M100 100H0V0H100V100ZM71.0312 36.4219C67.8594 36.5313 64.5469 37.6875 62.4219 39.4375C61.7188 40.0156 61.3594 40.375 60.3594 41.5469C59.875 42.0938 58.8125 44.2657 58.4844 45.3906C58.25 46.1406 58.2031 46.8594 58.2188 49.0625C58.2344 52.2031 58.375 52.8906 59.4688 55C60.3125 56.6406 60.5782 57 61.9219 58.3125C63.7344 60.0781 65.9688 61.3906 70.9375 63.5938C75.75 65.7187 76.9375 66.4688 77.8125 67.9062C78.125 68.4219 78.1875 68.7344 78.1875 69.8594C78.2031 71.0781 78.1563 71.25 77.75 71.8906C77.1563 72.7968 76.6562 73.25 75.6719 73.7031C74.75 74.125 73.0312 74.5312 72.0938 74.5312C71.0781 74.5312 68.9687 74.0781 68.0156 73.6719C66.4688 72.9843 64.2812 70.9687 63.3438 69.3906C63.1875 69.125 62.9844 68.9062 62.875 68.9062C62.7652 68.9065 61.7966 69.422 60.7344 70.0625C59.6719 70.7031 58.4531 71.4219 58.0312 71.6406C57.6094 71.8594 56.9844 72.2344 56.6406 72.4375C56.2969 72.6406 55.875 72.9063 55.6719 73C55.4688 73.0937 55.3125 73.2344 55.3125 73.2969C55.3125 73.5156 56.3906 75.2656 57.0469 76.1094C59.3594 79.0937 62.75 81.2031 66.9531 82.2812C68.5781 82.7031 68.8438 82.7031 72.1875 82.7188C75.5312 82.7344 75.7813 82.7187 77.2656 82.3125C80.6718 81.3906 82.7188 80.2656 84.625 78.25C86.9688 75.7813 88.0469 72.2969 87.6719 68.4844C87.1562 63.4219 85.1719 60.4844 80.2969 57.625C79.2499 56.9999 75.2344 55 75.0469 55C74.9211 54.9996 73.2651 54.2185 71.3281 53.2656C68.3282 51.7813 67.5156 50.7812 67.5 48.6562C67.5 47.2032 68 46.1563 69.0312 45.4688C70.0156 44.8125 70.7969 44.6406 72.2656 44.7344C74.3281 44.8594 75.1875 45.4063 77.3125 47.9531C77.6562 48.3593 77.8282 48.4531 78.0781 48.375C78.4843 48.25 84.7178 44.0943 84.875 43.8594C85.1094 43.4688 82.7188 40.5312 81.1406 39.2812C79.0469 37.6094 76.875 36.8281 73.6875 36.5625C72.5782 36.4844 71.3906 36.4219 71.0312 36.4219ZM34.4531 36.9844C29.6406 36.9531 23.8594 36.9531 21.6094 36.9844L17.5 37.0312V45.3125H30.4688V82.1406L31.5312 82.2344C32.8593 82.375 39.031 82.375 39.5 82.25L39.8438 82.1562V45.3125H52.8125V37.0312H48.0156C45.3593 37.0312 39.2656 37.0156 34.4531 36.9844Z" fill="#7B4AE2"/>
</g>
<defs>
<clipPath id="clip0_39_4715">
<rect width="100" height="100" fill="white"/>
</clipPath>
</defs>
</svg>
